<svg width="1400" height="1000" viewBox="0 0 1400 1000" fill="none" xmlns="http://www.w3.org/2000/svg" role="img" aria-labelledby="title desc">
  <title id="title">Calm Fulham dog walk placeholder</title>
  <desc id="desc">An illustrated park scene with trees, a walking path, a local walker, and a dog.</desc>
  <defs>
    <linearGradient id="sky" x1="700" y1="0" x2="700" y2="560" gradientUnits="userSpaceOnUse">
      <stop stop-color="#E8F4FB"/>
      <stop offset="1" stop-color="#CFE5F0"/>
    </linearGradient>
    <linearGradient id="grass" x1="700" y1="420" x2="700" y2="1000" gradientUnits="userSpaceOnUse">
      <stop stop-color="#8FC9AE"/>
      <stop offset="1" stop-color="#5B9A82"/>
    </linearGradient>
    <linearGradient id="path" x1="730" y1="500" x2="730" y2="1000" gradientUnits="userSpaceOnUse">
      <stop stop-color="#E4D8C7"/>
      <stop offset="1" stop-color="#C4B49E"/>
    </linearGradient>
  </defs>

  <rect width="1400" height="1000" fill="url(#sky)"/>
  <ellipse cx="1060" cy="150" rx="82" ry="82" fill="#F8E6B5"/>

  <path d="M0 500C140 455 305 435 470 462C628 487 775 570 961 560C1112 553 1246 501 1400 510V1000H0V500Z" fill="url(#grass)"/>
  <path d="M418 1000C460 842 612 645 739 552C842 480 986 446 1100 418L1400 412V1000H418Z" fill="url(#path)"/>

  <g opacity="0.92">
    <circle cx="230" cy="455" r="84" fill="#2B6A66"/>
    <rect x="217" y="520" width="25" height="122" rx="12" fill="#2F645A"/>

    <circle cx="122" cy="510" r="70" fill="#3B7D74"/>
    <rect x="113" y="565" width="18" height="96" rx="9" fill="#35665D"/>

    <circle cx="1220" cy="434" r="92" fill="#2B6766"/>
    <rect x="1207" y="504" width="24" height="132" rx="12" fill="#2C5E57"/>

    <circle cx="1300" cy="488" r="64" fill="#3D7D71"/>
    <rect x="1292" y="540" width="16" height="98" rx="8" fill="#356258"/>
  </g>

  <g>
    <circle cx="834" cy="628" r="35" fill="#1D3A56"/>
    <rect x="805" y="662" width="58" height="120" rx="24" fill="#1D3A56"/>
    <rect x="807" y="772" width="20" height="120" rx="10" fill="#18324C"/>
    <rect x="841" y="772" width="20" height="120" rx="10" fill="#18324C"/>

    <ellipse cx="928" cy="806" rx="58" ry="35" fill="#18324C"/>
    <circle cx="972" cy="785" r="19" fill="#18324C"/>
    <rect x="905" y="836" width="14" height="56" rx="7" fill="#142A3F"/>
    <rect x="940" y="836" width="14" height="56" rx="7" fill="#142A3F"/>
    <path d="M871 799C851 779 835 767 812 748" stroke="#1D3A56" stroke-width="9" stroke-linecap="round"/>
  </g>

  <g opacity="0.9">
    <rect x="62" y="64" width="350" height="42" rx="21" fill="white" fill-opacity="0.7"/>
    <text x="82" y="91" fill="#1A3B56" font-family="Arial, sans-serif" font-size="22" font-weight="700">Fulham park walk image placeholder</text>
  </g>
</svg>
